<svg id="visual" viewBox="0 0 900 600" width="900" height="600" xmlns="http://www.w3.org/2000/svg" xmlns:xlink="http://www.w3.org/1999/xlink" version="1.1"><rect x="0" y="0" width="900" height="600" fill="#FFF"></rect><path d="M0 146L8.3 141.5C16.7 137 33.3 128 50 129.5C66.7 131 83.3 143 100 149C116.7 155 133.3 155 150 152.2C166.7 149.3 183.3 143.7 200 142.5C216.7 141.3 233.3 144.7 250 142.2C266.7 139.7 283.3 131.3 300 130C316.7 128.7 333.3 134.3 350 139.5C366.7 144.7 383.3 149.3 400 152.7C416.7 156 433.3 158 450 149.7C466.7 141.3 483.3 122.7 500 120C516.7 117.3 533.3 130.7 550 139.2C566.7 147.7 583.3 151.3 600 148.8C616.7 146.3 633.3 137.7 650 133.2C666.7 128.7 683.3 128.3 700 124.8C716.7 121.3 733.3 114.7 750 119C766.7 123.3 783.3 138.7 800 141.5C816.7 144.3 833.3 134.7 850 133.2C866.7 131.7 883.3 138.3 891.7 141.7L900 145L900 0L891.7 0C883.3 0 866.7 0 850 0C833.3 0 816.7 0 800 0C783.3 0 766.7 0 750 0C733.3 0 716.7 0 700 0C683.3 0 666.7 0 650 0C633.3 0 616.7 0 600 0C583.3 0 566.7 0 550 0C533.3 0 516.7 0 500 0C483.3 0 466.7 0 450 0C433.3 0 416.7 0 400 0C383.3 0 366.7 0 350 0C333.3 0 316.7 0 300 0C283.3 0 266.7 0 250 0C233.3 0 216.7 0 200 0C183.3 0 166.7 0 150 0C133.3 0 116.7 0 100 0C83.3 0 66.7 0 50 0C33.3 0 16.7 0 8.3 0L0 0Z" fill="#ffffff"></path><path d="M0 91L8.3 96.3C16.7 101.7 33.3 112.3 50 114.8C66.7 117.3 83.3 111.7 100 110C116.7 108.3 133.3 110.7 150 111.7C166.7 112.7 183.3 112.3 200 106.3C216.7 100.3 233.3 88.7 250 88.5C266.7 88.3 283.3 99.7 300 102.8C316.7 106 333.3 101 350 101.5C366.7 102 383.3 108 400 110.5C416.7 113 433.3 112 450 105.5C466.7 99 483.3 87 500 83.8C516.7 80.7 533.3 86.3 550 88.7C566.7 91 583.3 90 600 94.8C616.7 99.7 633.3 110.3 650 109.3C666.7 108.3 683.3 95.7 700 90.3C716.7 85 733.3 87 750 88.3C766.7 89.7 783.3 90.3 800 89.2C816.7 88 833.3 85 850 89.3C866.7 93.7 883.3 105.3 891.7 111.2L900 117L900 0L891.7 0C883.3 0 866.7 0 850 0C833.3 0 816.7 0 800 0C783.3 0 766.7 0 750 0C733.3 0 716.7 0 700 0C683.3 0 666.7 0 650 0C633.3 0 616.7 0 600 0C583.3 0 566.7 0 550 0C533.3 0 516.7 0 500 0C483.3 0 466.7 0 450 0C433.3 0 416.7 0 400 0C383.3 0 366.7 0 350 0C333.3 0 316.7 0 300 0C283.3 0 266.7 0 250 0C233.3 0 216.7 0 200 0C183.3 0 166.7 0 150 0C133.3 0 116.7 0 100 0C83.3 0 66.7 0 50 0C33.3 0 16.7 0 8.3 0L0 0Z" fill="#ffccb4"></path><path d="M0 48L8.3 47.7C16.7 47.3 33.3 46.7 50 47.5C66.7 48.3 83.3 50.7 100 55C116.7 59.3 133.3 65.7 150 66.3C166.7 67 183.3 62 200 64.8C216.7 67.7 233.3 78.3 250 83C266.7 87.7 283.3 86.3 300 82.3C316.7 78.3 333.3 71.7 350 70.8C366.7 70 383.3 75 400 77C416.7 79 433.3 78 450 74.8C466.7 71.7 483.3 66.3 500 64.5C516.7 62.7 533.3 64.3 550 63C566.7 61.7 583.3 57.3 600 59.3C616.7 61.3 633.3 69.7 650 68.2C666.7 66.7 683.3 55.3 700 54.8C716.7 54.3 733.3 64.7 750 72C766.7 79.3 783.3 83.7 800 78.5C816.7 73.3 833.3 58.7 850 56.8C866.7 55 883.3 66 891.7 71.5L900 77L900 0L891.7 0C883.3 0 866.7 0 850 0C833.3 0 816.7 0 800 0C783.3 0 766.7 0 750 0C733.3 0 716.7 0 700 0C683.3 0 666.7 0 650 0C633.3 0 616.7 0 600 0C583.3 0 566.7 0 550 0C533.3 0 516.7 0 500 0C483.3 0 466.7 0 450 0C433.3 0 416.7 0 400 0C383.3 0 366.7 0 350 0C333.3 0 316.7 0 300 0C283.3 0 266.7 0 250 0C233.3 0 216.7 0 200 0C183.3 0 166.7 0 150 0C133.3 0 116.7 0 100 0C83.3 0 66.7 0 50 0C33.3 0 16.7 0 8.3 0L0 0Z" fill="#ff996c"></path><path d="M0 26L8.3 30.5C16.7 35 33.3 44 50 44.7C66.7 45.3 83.3 37.7 100 36C116.7 34.3 133.3 38.7 150 38.3C166.7 38 183.3 33 200 30.5C216.7 28 233.3 28 250 28.3C266.7 28.7 283.3 29.3 300 30.5C316.7 31.7 333.3 33.3 350 30.5C366.7 27.7 383.3 20.3 400 20.5C416.7 20.7 433.3 28.3 450 28.5C466.7 28.7 483.3 21.3 500 17.7C516.7 14 533.3 14 550 17C566.7 20 583.3 26 600 30.8C616.7 35.7 633.3 39.3 650 37.7C666.7 36 683.3 29 700 26.8C716.7 24.7 733.3 27.3 750 28.8C766.7 30.3 783.3 30.7 800 32.2C816.7 33.7 833.3 36.3 850 36.8C866.7 37.3 883.3 35.7 891.7 34.8L900 34L900 0L891.7 0C883.3 0 866.7 0 850 0C833.3 0 816.7 0 800 0C783.3 0 766.7 0 750 0C733.3 0 716.7 0 700 0C683.3 0 666.7 0 650 0C633.3 0 616.7 0 600 0C583.3 0 566.7 0 550 0C533.3 0 516.7 0 500 0C483.3 0 466.7 0 450 0C433.3 0 416.7 0 400 0C383.3 0 366.7 0 350 0C333.3 0 316.7 0 300 0C283.3 0 266.7 0 250 0C233.3 0 216.7 0 200 0C183.3 0 166.7 0 150 0C133.3 0 116.7 0 100 0C83.3 0 66.7 0 50 0C33.3 0 16.7 0 8.3 0L0 0Z" fill="#ff5f25"></path></svg>